<svg width="20" height="20" viewBox="0 0 20 20" fill="none" xmlns="http://www.w3.org/2000/svg">
<path d="M6 9C6.28333 9 6.521 8.904 6.713 8.712C6.90433 8.52067 7 8.28333 7 8C7 7.71667 6.90433 7.479 6.713 7.287C6.521 7.09567 6.28333 7 6 7C5.71667 7 5.479 7.09567 5.287 7.287C5.09567 7.479 5 7.71667 5 8C5 8.28333 5.09567 8.52067 5.287 8.712C5.479 8.904 5.71667 9 6 9ZM10 9C10.2833 9 10.521 8.904 10.713 8.712C10.9043 8.52067 11 8.28333 11 8C11 7.71667 10.9043 7.479 10.713 7.287C10.521 7.09567 10.2833 7 10 7C9.71667 7 9.47933 7.09567 9.288 7.287C9.096 7.479 9 7.71667 9 8C9 8.28333 9.096 8.52067 9.288 8.712C9.47933 8.904 9.71667 9 10 9ZM14 9C14.2833 9 14.5207 8.904 14.712 8.712C14.904 8.52067 15 8.28333 15 8C15 7.71667 14.904 7.479 14.712 7.287C14.5207 7.09567 14.2833 7 14 7C13.7167 7 13.4793 7.09567 13.288 7.287C13.096 7.479 13 7.71667 13 8C13 8.28333 13.096 8.52067 13.288 8.712C13.4793 8.904 13.7167 9 14 9ZM0 20V2C0 1.45 0.196 0.979 0.588 0.587C0.979333 0.195667 1.45 0 2 0H18C18.55 0 19.021 0.195667 19.413 0.587C19.8043 0.979 20 1.45 20 2V14C20 14.55 19.8043 15.021 19.413 15.413C19.021 15.8043 18.55 16 18 16H4L0 20Z" fill="white"/>
</svg>
